<?xml version="1.0" encoding="iso-8859-1"?>
<!DOCTYPE svg PUBLIC "-//W3C//DTD SVG 1.1//EN" "http://www.w3.org/Graphics/SVG/1.1/DTD/svg11.dtd">
<svg 
 version="1.1" xmlns="http://www.w3.org/2000/svg" xmlns:xlink="http://www.w3.org/1999/xlink" x="0px" y="0px" width="512px"
	 height="512px" viewBox="0 0 512 512" enable-background="new 0 0 512 512" xml:space="preserve"
><g id="b75708d097f2188dff6617b0f00e1317"><g></g><path display="inline" d="M296.396,135.465c9.391,10.241,23.43,53.928,23.43,120.535c0,66.607-14.039,110.293-23.43,120.535
		c-9.39-10.242-23.42-53.933-23.42-120.535C272.976,189.397,287.006,145.706,296.396,135.465z M511.5,256
		c0,141.107-114.393,255.5-255.5,255.5S0.5,397.107,0.5,256C0.5,114.891,114.893,0.5,256,0.5S511.5,114.891,511.5,256z M351.047,256
		c0-15.255-1.53-149.042-54.651-149.042c-17.777,0-29.754,15.016-37.853,35.53l-56.953,59.313h-26.024
		c-14.38,0-26.024,24.27-26.024,54.198s11.644,54.198,26.024,54.198h26.024l56.955,59.317c8.097,20.51,20.077,35.526,37.851,35.526
		C349.517,405.042,351.047,271.254,351.047,256z"></path></g></svg>